<svg viewBox="0 0 4120 750" xmlns="http://www.w3.org/2000/svg">
   <g fill="#FFF" fill-rule="evenodd">
      <path d="M486.273 523.893c-6.45 6.828-17.924 13.94-34.426 21.338-16.5 7.397-34.71 13.467-54.625 18.208-19.915 4.742-38.028 7.113-54.34 7.113-44.383 0-83.36-8.63-116.932-25.89-33.571-17.26-59.461-41.158-77.67-71.695-18.208-30.537-27.312-65.341-27.312-104.414 0-48.935 9.673-90.377 29.02-124.328 19.346-33.952 45.33-59.367 77.954-76.248 32.623-16.88 68.66-25.32 108.112-25.32 25.416 0 49.314 2.844 71.695 8.534 22.381 5.69 42.107 13.088 59.177 22.192l-26.743 76.816c-11.001-6.07-26.08-11.664-45.237-16.786-19.156-5.12-35.183-7.681-48.081-7.681-45.521 0-80.325 11.38-104.413 34.14-24.089 22.76-36.133 56.522-36.133 101.284 0 25.796 5.88 48.271 17.64 67.428 11.76 19.157 28.166 33.856 49.22 44.098 21.053 10.243 45.046 15.364 71.979 15.364 25.795 0 44.952-3.604 57.47-10.812v-50.642h-72.264v-79.661h155.909v176.962zM806.056 566L717.86 432.852h-55.194V566h-82.507V147.208h126.89c51.97 0 92.274 12.613 120.914 37.84 28.64 25.226 42.96 59.65 42.96 103.275 0 25.795-5.405 49.978-16.216 72.549-10.811 22.57-27.407 40.305-49.789 53.202L902.22 566h-96.163zm-143.39-212.81h58.608c22.381 0 38.693-6.543 48.935-19.63 10.242-13.088 15.363-27.218 15.363-42.392 0-15.174-4.362-29.683-13.087-43.53-8.725-13.845-25.606-20.768-50.642-20.768h-59.177v126.32zm654.362-205.982L1125.84 585.346 934.653 147.208h99.008l95.593 236.14 89.904-236.14h97.87zM2533.762 130.138V566h-82.507V366.277L2314.693 560.31h-1.138l-131.442-181.514V566h-79.661V130.138h.569l212.24 301.007 217.363-301.007h1.138zm393.755 17.07v79.662H2724.38v89.334h179.807v79.662H2724.38v90.473h211.103V566h-293.61V147.208h285.644zm93.318 0h125.182c53.487 0 97.49 10.337 132.01 31.011 34.52 20.675 59.652 47.418 75.394 80.23 15.743 32.814 23.614 67.997 23.614 105.552 0 40.21-9.483 75.679-28.45 106.405-18.967 30.727-44.478 54.34-76.532 70.842C3239.998 557.749 3204.815 566 3166.5 566h-145.666V147.208zm131.441 339.13c42.866 0 76.816-11 101.853-33.002 25.036-22.002 37.555-53.677 37.555-95.025 0-33.382-6.923-59.935-20.77-79.661-13.845-19.726-29.967-33.382-48.365-40.969-18.398-7.587-35.753-11.38-52.065-11.38h-67.143v260.038h48.935zm389.772-339.13V566h-82.506V147.208h82.506zm315.232 336.855h-138.839L3684.301 566h-81.369l188.912-435.293h4.552L3985.307 566h-95.593l-32.434-81.938zm-27.313-69.42l-40.4-101.853-42.106 101.853h82.506z"></path>
      <g fill-rule="nonzero">
         <path d="M1490.934 468.825l-.245 99.648 204.92 115.967 204.92-115.967v-99.518l-204.92 115.706z"></path>
         <path d="M1584.09 393.977l111.52 63.114 111.65-63.042 87.755 49.558-199.406 112.847-199.301-112.788 87.782-49.69z"></path>
         <path d="M1490.934 417.962l-.245-99.649 204.92-115.967 204.92 115.967v99.518l-204.92-115.705z"></path>
         <path d="M1490.934 289.976l-.245-99.232 204.92-115.967 204.92 115.967v99.101L1695.61 174.14z"></path>
      </g>
   </g>
</svg>